<?xml version="1.0" encoding="UTF-8"?>
<svg xmlns="http://www.w3.org/2000/svg" xmlns:xlink="http://www.w3.org/1999/xlink" width="500px" height="500px" viewBox="0 0 500 500" version="1.1">
<g id="surface1">
<path style=" stroke:none;fill-rule:nonzero;fill:rgb(0%,0%,0%);fill-opacity:1;" d="M 76.011719 287.605469 L 113.347656 287.605469 L 113.347656 294.132812 L 83.625 294.132812 L 83.625 308.449219 L 113.347656 308.449219 L 113.347656 314.972656 L 83.625 314.972656 L 83.625 336.539062 L 76.011719 336.539062 Z M 158.476562 320.230469 C 158.476562 331.285156 152.496094 337.445312 140.714844 337.445312 L 135.820312 337.445312 C 123.675781 337.445312 118.058594 331.105469 118.058594 320.230469 L 118.058594 313.886719 C 118.058594 303.011719 123.496094 296.667969 135.820312 296.667969 L 140.714844 296.667969 C 152.3125 296.667969 158.476562 303.011719 158.476562 313.886719 Z M 141.800781 302.832031 L 135.09375 302.832031 C 128.390625 302.832031 125.851562 305.910156 125.851562 312.980469 L 125.851562 321.316406 C 125.851562 328.386719 128.390625 331.464844 135.09375 331.464844 L 141.984375 331.464844 C 149.050781 331.464844 151.226562 328.386719 151.226562 321.316406 L 151.226562 312.980469 C 151.042969 305.730469 148.871094 302.648438 141.800781 302.832031 Z M 177.6875 297.394531 L 188.378906 297.394531 L 188.378906 303.554688 L 177.324219 303.554688 C 173.15625 303.554688 171.523438 304.824219 171.523438 308.8125 L 171.523438 336.539062 L 164.273438 336.539062 L 164.273438 309.535156 C 164.457031 301.5625 170.074219 297.394531 177.6875 297.394531 Z M 194.902344 297.394531 L 240.214844 297.394531 C 250 297.394531 254.351562 302.832031 254.351562 310.625 L 254.351562 336.539062 L 247.101562 336.539062 L 247.101562 310.261719 C 247.101562 305.367188 245.289062 303.917969 240.574219 303.917969 L 228.25 303.917969 L 228.25 336.539062 L 221.003906 336.539062 L 221.003906 303.917969 L 202.152344 303.917969 L 202.152344 336.539062 L 194.902344 336.539062 Z M 297.847656 336.539062 L 275.734375 336.539062 C 265.949219 336.539062 261.597656 331.648438 261.597656 322.585938 L 261.597656 297.394531 L 268.847656 297.394531 L 268.847656 323.308594 C 268.847656 328.386719 270.660156 330.015625 275.375 330.015625 L 290.777344 330.015625 L 290.777344 297.394531 L 298.027344 297.394531 Z M 312.890625 287.605469 L 312.890625 336.539062 L 305.640625 336.539062 L 305.640625 287.605469 Z M 356.386719 336.539062 L 331.195312 336.539062 C 323.761719 336.539062 319.234375 333.640625 319.234375 327.117188 C 319.234375 322.949219 322.496094 319.867188 327.933594 315.878906 L 345.332031 303.375 L 321.40625 303.375 L 321.40625 297.210938 L 341.523438 297.210938 C 351.492188 297.210938 356.386719 302.648438 356.386719 311.347656 Z M 349.136719 330.015625 L 349.136719 308.628906 L 330.652344 322.042969 C 328.113281 323.855469 326.664062 324.761719 326.664062 326.933594 C 326.664062 329.109375 328.476562 330.015625 330.832031 330.015625 Z M 372.152344 330.015625 L 387.015625 330.015625 L 387.015625 296.304688 C 387.015625 294.855469 386.289062 294.132812 385.023438 294.132812 L 373.605469 294.132812 L 373.605469 287.605469 L 386.109375 287.605469 C 391.910156 287.605469 394.445312 290.507812 394.445312 296.304688 L 394.445312 330.199219 L 407.675781 330.199219 L 407.675781 336.722656 L 372.335938 336.722656 Z M 411.121094 330.015625 L 416.375 330.015625 L 416.375 330.921875 L 414.382812 330.921875 L 414.382812 336.359375 L 413.113281 336.359375 L 413.113281 330.921875 L 411.121094 330.921875 Z M 417.101562 330.015625 L 418.730469 330.015625 L 420.542969 335.089844 L 422.355469 330.015625 L 423.988281 330.015625 L 423.988281 336.539062 L 422.898438 336.539062 L 422.898438 331.464844 L 421.089844 336.539062 L 420.183594 336.539062 L 418.371094 331.464844 L 418.371094 336.539062 L 417.28125 336.539062 Z M 417.101562 330.015625 "/>
<path style=" stroke:none;fill-rule:nonzero;fill:rgb(93.333333%,0%,0%);fill-opacity:1;" d="M 163.730469 212.03125 L 125.308594 249.546875 L 76.011719 249.546875 L 137.269531 188.832031 C 159.925781 166.179688 170.980469 162.554688 209.765625 162.554688 L 363.09375 162.554688 L 329.746094 195.175781 L 214.113281 195.175781 C 185.117188 195.175781 178.953125 197.351562 163.730469 212.03125 Z M 324.851562 200.25 L 214.839844 200.25 C 185.660156 200.25 181.128906 202.425781 167.898438 215.65625 L 134.1875 249.546875 L 179.859375 249.546875 L 190.734375 238.671875 C 197.984375 231.421875 201.066406 230.878906 215.566406 230.878906 L 294.402344 230.878906 Z M 336.8125 249.546875 L 423.988281 162.554688 L 369.796875 162.554688 L 282.804688 249.546875 Z M 336.8125 249.546875 "/>
</g>
</svg>
